<?xml version="1.0" encoding="UTF-8"?><svg id="f" xmlns="http://www.w3.org/2000/svg" viewBox="0 0 32 32"><defs><style>.g{fill:#fff;}</style></defs><rect width="32" height="32"/><path class="g" d="M28.89,9.85s-.08-.05-.16-.11c0,0-.12-.09-.39-.17-.18-.05-1.15-.21-1.81,.48-.41,.43-.45,1-.45,1.24,.6,1.05,.95,4.6-.67,7.54,0,0-1.35,2.46-4.59,4.01-.23,.11-2.94,.88-3.68,.99-.01,0-.15,.03-.39,.07-.18,.04-.4,.1-.72,.23-1.4,.53-1.55,.96-2.76,1.51-.49,.22-1.69,.75-3.23,.76-.6,0-.76-.08-2.64-.15-.55-.02-1.01-.03-1.59,.1-.31,.07-.86,.2-1.41,.57-.91,.62-1.12,1.45-1.25,1.4-.18-.07,.01-1.8,1.11-3.12,.53-.64,1.16-1.05,1.34-1.17,.45-.29,.84-.47,1.4-.71,1.06-.46,1.68-.53,1.66-.68-.01-.13-.47-.22-.87-.21-.9,.02-1.47,.54-1.55,.44-.08-.1,.33-.66,.96-1.14,.49-.38,1.13-.61,2.41-1.08,.68-.25,.91-.31,1.19-.34,.55-.07,1.16-.02,1.32,0,.44,.04,.7,.14,.75,.06,.06-.11-.35-.42-.4-.46-.6-.45-1.14-.49-1.14-.57,0-.11,.86-.25,2.18-.15,.35,.03,.71,.05,1.08,.09,.49-.68,1-1.39,1.52-2.1-.54-.18-1.05-.4-1.55-.61-1.22-.51-1.92-1.02-1.88-1.12,.03-.08,.53,.14,1.27,0,.06-.01,.56-.1,.56-.23,0-.1-.28-.12-.69-.29-.15-.06-.72-.29-1.18-.6-.24-.16-.41-.32-.9-.84-.93-.99-1.39-1.49-1.66-2.05-.34-.71-.45-1.4-.34-1.45,.12-.05,.39,.67,1.19,1.09,.35,.19,.8,.32,.87,.21,.08-.13-.44-.46-1.18-1.36-.39-.47-.66-.81-.93-1.27-.11-.19-.49-.85-.67-1.66-.38-1.68,.23-3.3,.42-3.29,.14,.01-.05,.84,.48,1.81,.32,.58,.75,.94,1,1.15,.46,.39,.88,.58,1.38,.81,1.72,.78,1.89,.79,2.42,1.06,1.36,.7,2.2,1.72,2.53,2.14,.81,1.02,.77,1.47,1.72,2.53,.32-.31,.73-.74,1.09-1.23,.12-.16,.21-.3,.38-.57,.36-.58,.36-.65,.33-.69-.12-.18-.93,.3-1.04,.14-.11-.16,.49-.92,1.34-1.5,.35-.24,.64-.37,.86-.48-.34-.16-.71-.37-1.06-.63-.8-.59-1.37-1.3-1.28-1.41,.08-.1,.62,.39,1.74,.71,.33,.09,.62,.16,.79,.2-.44-.44-1.11-.84-1.03-.97,.12-.2,1.05,.48,2.46,.35,.4-.04,.61-.11,1.14-.1,.28,0,.84,0,1.37,.24,.85,.36,1.27,1.12,1.44,1.47,.46,.12,1.17,.37,1.32,.81,.02,.05,.09,.3,.04,.33Z"/></svg>